<?xml version="1.0" encoding="UTF-8"?>
<!DOCTYPE svg PUBLIC "-//W3C//DTD SVG 1.1//EN" "http://www.w3.org/Graphics/SVG/1.1/DTD/svg11.dtd">
<!-- Creator: CorelDRAW X8 -->
<svg xmlns="http://www.w3.org/2000/svg" xml:space="preserve" width="2362px" height="2362px" version="1.1" style="shape-rendering:geometricPrecision; text-rendering:geometricPrecision; image-rendering:optimizeQuality; fill-rule:evenodd; clip-rule:evenodd"
viewBox="0 0 2362 2362"
 xmlns:xlink="http://www.w3.org/1999/xlink">
 <defs>
  <style type="text/css">
   <![CDATA[
    .fil8 {fill:url(#id0);fill-rule:nonzero}
    .fil2 {fill:url(#id1);fill-rule:nonzero}
    .fil6 {fill:url(#id2);fill-rule:nonzero}
    .fil3 {fill:url(#id3);fill-rule:nonzero}
    .fil5 {fill:url(#id4);fill-rule:nonzero}
    .fil0 {fill:url(#id5);fill-rule:nonzero}
    .fil4 {fill:url(#id6);fill-rule:nonzero}
    .fil1 {fill:url(#id7);fill-rule:nonzero}
    .fil7 {fill:url(#id8);fill-rule:nonzero}
   ]]>
  </style>
  <linearGradient id="id0" gradientUnits="userSpaceOnUse" x1="23.2728" y1="470.851" x2="33.0916" y2="2060.71">
   <stop offset="0" style="stop-opacity:1; stop-color:#316D85"/>
   <stop offset="0.172549" style="stop-opacity:1; stop-color:#87AAB2"/>
   <stop offset="0.368627" style="stop-opacity:1; stop-color:#5A8A94"/>
   <stop offset="1" style="stop-opacity:1; stop-color:#DEE8DF"/>
  </linearGradient>
  <linearGradient id="id1" gradientUnits="userSpaceOnUse" xlink:href="#id0" x1="23.2728" y1="470.851" x2="33.0916" y2="2060.71">
  </linearGradient>
  <linearGradient id="id2" gradientUnits="userSpaceOnUse" xlink:href="#id0" x1="23.2728" y1="470.851" x2="33.0916" y2="2060.71">
  </linearGradient>
  <linearGradient id="id3" gradientUnits="userSpaceOnUse" xlink:href="#id0" x1="23.274" y1="470.851" x2="33.0928" y2="2060.71">
  </linearGradient>
  <linearGradient id="id4" gradientUnits="userSpaceOnUse" xlink:href="#id0" x1="23.2728" y1="470.851" x2="33.0916" y2="2060.71">
  </linearGradient>
  <linearGradient id="id5" gradientUnits="userSpaceOnUse" xlink:href="#id0" x1="23.2728" y1="470.851" x2="33.0916" y2="2060.71">
  </linearGradient>
  <linearGradient id="id6" gradientUnits="userSpaceOnUse" xlink:href="#id0" x1="23.2728" y1="470.851" x2="33.0916" y2="2060.71">
  </linearGradient>
  <linearGradient id="id7" gradientUnits="userSpaceOnUse" xlink:href="#id0" x1="23.274" y1="470.851" x2="33.0928" y2="2060.71">
  </linearGradient>
  <linearGradient id="id8" gradientUnits="userSpaceOnUse" xlink:href="#id0" x1="23.2728" y1="470.851" x2="33.0916" y2="2060.71">
  </linearGradient>
 </defs>
 <g id="Capa_x0020_1">
  <metadata id="CorelCorpID_0Corel-Layer"/>
  <g id="_724647264">
   <path class="fil0" d="M1195 479c273,0 519,112 698,294 179,182 289,433 289,710 0,31 -1,61 -4,92 -3,30 -7,60 -12,90l-2 10 -183 0 0 -517 -98 0 0 310 -86 0 0 -378 -136 0 0 431 -57 0 0 375 -87 0c0,-133 0,-266 0,-399l64 0 0 -294 -102 0 0 -246 -21 0 0 511 -32 0 0 285 -74 0 0 -427 -131 0 0 -463 -234 0 0 726 -79 0 0 307 -74 0 0 -331 50 0 0 -521 -177 108 0 174 -85 0 0 119 57 0 0 380 -81 0 0 -357 -168 0 0 207 -203 0 -2 -10c-5,-30 -9,-60 -12,-90 -3,-31 -4,-61 -4,-92 0,-277 110,-528 289,-710 178,-182 425,-294 697,-294zm682 311c-175,-178 -416,-287 -682,-287 -266,0 -506,109 -681,287 -174,177 -282,423 -282,693 0,31 1,61 4,90 2,26 6,52 10,78l161 0 0 -206 191 0 0 -142 86 0 0 -164 224 -137 0 563 56 0 0 -726 281 1 0 463 130 0 0 426 28 0 0 -284 31 0 0 -512 68 0 0 246 102 0 0 318 34 0 0 -431 182 0 0 379 40 0 0 -311 144 0 0 517 141 0c4,-26 8,-52 10,-78 2,-29 4,-59 4,-90 0,-270 -108,-516 -282,-693zm-296 731l-41 0 0 352 41 0 0 -352zm-697 68l-27 0 0 284 27 0 0 -284zm-262 -121l0 333 34 0 0 -333 -34 0z"/>
   <path class="fil1" d="M813 563l3 2c63,18 126,31 189,39 64,8 127,12 190,12 64,0 128,-4 192,-12 63,-8 127,-21 191,-39l0 0c0,0 0,0 0,0l3 -2 11 21 -4 2c-1,1 -2,1 -3,2l0 0c-65,18 -130,31 -195,39 -65,9 -130,13 -195,13 -64,0 -128,-4 -193,-13 -64,-8 -129,-21 -194,-39l0 0c-1,-1 -3,-2 -5,-3l-3 -2 13 -20zm765 2l0 0 0 0 0 0zm1 0l0 0c0,0 0,0 0,0z"/>
   <path class="fil2" d="M607 687c3,2 6,4 9,7 2,1 1,1 2,1l0 0c96,39 192,68 288,87 96,19 193,29 289,29 97,-1 194,-11 292,-31 97,-20 195,-49 292,-86 1,0 1,0 2,-1 2,-1 3,-2 5,-3l14 18c-2,2 -4,4 -6,5 -2,2 -4,3 -7,4 -99,37 -197,66 -296,86 -99,20 -197,31 -295,31 -99,1 -197,-9 -294,-29 -98,-19 -196,-49 -293,-88l0 0c-1,0 -3,-2 -6,-4 -1,-1 -5,-3 -9,-6l13 -20z"/>
   <path class="fil3" d="M438 857l5 3c60,39 137,70 220,94 101,30 213,49 314,60l-3 23c-102,-11 -214,-30 -317,-60 -86,-25 -165,-56 -226,-97l-6 -3 13 -20zm795 169c33,0 69,-1 107,-4 34,-2 69,-5 105,-9l2 23c-36,4 -71,7 -105,10 -38,2 -75,3 -109,4l0 -24zm256 -19c83,-12 170,-30 255,-57 73,-23 145,-52 211,-90l1 0c0,0 0,0 0,0l5 9 10 7c0,0 0,1 -1,1 -1,1 -2,2 -3,3l0 0c-68,39 -141,69 -216,93 -87,27 -175,45 -259,57l-3 -23zm467 -147c-1,0 -3,2 -4,3l5 3 4 3 -5 -9zm-4 3l0 0 5 3 0 0 -5 -3zm0 0c0,0 0,0 0,0l0 0 5 3 -5 -3z"/>
   <path class="fil4" d="M312 1062l10 4c3,1 6,2 7,3l0 0c58,39 118,70 179,95 62,26 126,46 190,60l-5 23c-66,-15 -131,-35 -193,-61 -64,-26 -125,-58 -184,-97l0 0c-1,-1 -1,0 -3,-1l-10 -4 9 -22zm585 195c12,1 26,2 40,3 13,1 27,2 39,3l-1 24c-14,-1 -27,-2 -40,-3 -13,-1 -26,-3 -40,-4l2 -23zm336 12c36,0 71,0 106,-1 35,-1 71,-3 106,-6l2 24c-35,2 -71,4 -107,5 -35,1 -71,2 -107,2l0 -24zm357 -24c10,-1 19,-3 29,-4 9,-2 19,-4 28,-6l5 23c-10,2 -20,4 -29,6 -10,1 -20,3 -29,5l-4 -24zm215 -53c10,-3 20,-7 31,-11 10,-4 21,-8 32,-12l8 22c-10,4 -21,8 -32,12 -11,4 -21,8 -32,11l-7 -22zm139 -57c21,-10 42,-20 62,-31 21,-11 42,-23 63,-36 1,0 2,-1 4,-2l6 -2 10 21 -6 3c-2,1 -2,0 -2,1 -22,13 -43,25 -64,36 -21,11 -42,22 -63,31l-10 -21z"/>
   <path class="fil5" d="M239 1325c25,23 58,44 98,64 41,21 90,39 144,56l-6 23c-56,-17 -106,-37 -149,-58 -41,-21 -76,-44 -102,-68l15 -17zm658 198c12,1 25,3 40,4 13,1 27,2 39,3l-1 24c-14,-1 -27,-2 -40,-4 -12,-1 -25,-2 -40,-3l2 -24zm466 11c8,0 16,-1 25,-1 8,-1 16,-1 25,-2l2 24c-8,0 -16,1 -26,1 -8,1 -16,1 -25,2l-1 -24zm625 -118c32,-13 62,-27 90,-41 27,-15 52,-30 75,-46l14 19c-24,17 -50,33 -78,48 -29,15 -60,29 -92,42l-9 -22z"/>
   <polygon class="fil6" points="1207,491 1207,851 1184,851 1184,491 "/>
   <path class="fil7" d="M1860 1139c-51,-188 -142,-348 -259,-460 -115,-111 -255,-176 -406,-176 -191,0 -366,105 -494,276 -127,170 -208,405 -215,666l112 0 0 -142 86 0 0 -164 224 -137 0 563 56 0 0 -726 281 1 0 463 130 0 0 426 28 0 0 -284 31 0 0 -512 68 0 0 246 102 0 0 318 34 0 0 -431 182 0 0 379 40 0 0 -306zm-243 -477c122,117 217,285 268,481l4 15 -6 0 0 310 -86 0 0 -378 -136 0 0 431 -57 0 0 375 -87 0c0,-133 0,-266 0,-399l64 0 0 -294 -102 0 0 -246 -21 0 0 511 -32 0 0 285 -74 0 0 -427 -131 0 0 -463 -234 0 0 726 -79 0 0 307 -74 0 0 -331 50 0 0 -521 -177 108 0 174 -85 0 0 119 57 0 0 380 -81 0 0 -357 -136 0 1 -12c5,-271 88,-515 220,-691 132,-177 313,-286 512,-286 158,0 303,68 422,183zm-961 806l-34 0 0 333 34 0 0 -333zm228 405l0 -284 -27 0 0 284 27 0zm697 0l0 -352 -41 0 0 352 41 0z"/>
   <path class="fil8" d="M1538 1179c-9,-72 -21,-142 -36,-206l0 206 36 0zm-46 -246c-23,-94 -53,-177 -87,-244 -60,-117 -132,-186 -210,-186 -67,0 -130,52 -185,142 -55,92 -100,221 -131,374l29 -17 0 563 56 0 0 -726 281 1 0 463 130 0 0 426 28 0 0 -284 31 0 0 -512 58 0zm-67 -255c64,126 113,305 137,512l2 13 -85 0 0 -246 -21 0 0 511 -32 0 0 285 -74 0 0 -427 -131 0 0 -463 -234 0 0 726 -79 0 0 307 -67 0 -2 -10c-1,-8 -2,-15 -2,-19 -1,-6 -2,-13 -3,-20l0 -1c0,-94 0,-187 0,-281l50 0 0 -521 -38 23 5 -26c32,-168 80,-309 140,-408 58,-98 129,-154 204,-154 87,0 167,74 230,199zm-541 1195l0 -284 -27 0 0 255c0,6 1,12 2,19l2 10 23 0z"/>
  </g>
 </g>
</svg>
